<svg id="svg" version="1.1" xmlns="http://www.w3.org/2000/svg" xmlns:xlink="http://www.w3.org/1999/xlink" width="400" height="406.4935064935065" viewBox="0, 0, 400,406.4935064935065"><g id="svgg"><path id="path0" d="M0.000 203.200 L 0.000 406.400 200.000 406.400 L 400.000 406.400 400.000 203.200 L 400.000 0.000 200.000 0.000 L 0.000 0.000 0.000 203.200 M176.163 7.941 C 176.279 8.128,178.675 8.409,181.487 8.564 C 184.299 8.719,186.771 9.016,186.980 9.223 C 187.189 9.430,188.123 9.600,189.056 9.600 C 189.989 9.600,190.849 9.756,190.968 9.947 C 191.086 10.139,192.446 10.419,193.991 10.572 C 195.536 10.724,196.800 11.018,196.800 11.224 C 196.800 11.431,197.430 11.600,198.200 11.600 C 198.970 11.600,199.600 11.767,199.600 11.971 C 199.600 12.175,200.590 12.466,201.800 12.617 C 203.010 12.768,204.000 13.028,204.000 13.195 C 204.000 13.361,204.728 13.614,205.617 13.756 C 207.113 13.996,208.722 14.663,209.200 15.242 C 209.310 15.376,210.075 15.609,210.900 15.760 C 211.725 15.912,212.400 16.208,212.400 16.418 C 212.400 16.628,212.712 16.800,213.094 16.800 C 213.476 16.800,216.897 18.375,220.696 20.300 C 224.495 22.225,227.963 23.978,228.402 24.195 C 228.841 24.412,229.200 24.727,229.200 24.895 C 229.200 25.063,229.560 25.200,230.000 25.200 C 230.440 25.200,230.800 25.384,230.800 25.610 C 230.800 25.835,231.205 26.195,231.700 26.409 C 232.701 26.842,234.093 27.677,234.400 28.029 C 234.510 28.155,234.870 28.382,235.200 28.534 C 235.530 28.685,236.268 29.122,236.840 29.504 C 237.954 30.249,239.308 31.115,240.600 31.910 C 241.040 32.181,241.810 32.579,242.310 32.795 C 242.811 33.011,243.325 33.461,243.453 33.794 C 243.581 34.127,243.864 34.400,244.082 34.400 C 244.585 34.400,247.334 35.670,247.600 36.025 C 247.710 36.172,248.250 36.430,248.800 36.599 C 249.350 36.767,250.340 37.286,250.999 37.752 C 252.748 38.989,256.489 40.797,257.300 40.798 C 257.685 40.799,258.000 40.978,258.000 41.195 C 258.000 41.413,258.720 41.706,259.600 41.846 C 260.480 41.987,261.200 42.245,261.200 42.419 C 261.200 42.594,261.740 42.855,262.400 43.000 C 263.060 43.145,263.600 43.429,263.600 43.632 C 263.600 43.834,264.039 44.000,264.576 44.000 C 265.113 44.000,265.654 44.164,265.778 44.365 C 265.903 44.566,266.722 44.852,267.600 45.000 C 268.478 45.148,269.297 45.434,269.422 45.635 C 269.546 45.836,270.087 46.000,270.624 46.000 C 271.161 46.000,271.600 46.160,271.600 46.355 C 271.600 46.550,272.406 46.830,273.391 46.978 C 274.376 47.125,275.275 47.398,275.390 47.584 C 275.505 47.769,276.679 48.047,278.000 48.200 C 279.321 48.353,280.502 48.641,280.624 48.839 C 280.747 49.038,281.366 49.200,282.000 49.200 C 282.634 49.200,283.255 49.366,283.381 49.569 C 283.506 49.771,284.779 50.063,286.210 50.216 C 287.641 50.369,288.909 50.653,289.029 50.847 C 289.149 51.041,290.036 51.200,291.000 51.200 C 291.964 51.200,292.852 51.360,292.973 51.556 C 293.094 51.752,295.219 52.042,297.696 52.200 C 300.173 52.359,302.422 52.668,302.693 52.887 C 302.994 53.131,309.754 53.371,320.007 53.504 C 329.258 53.623,336.922 53.874,337.037 54.060 C 337.153 54.247,338.036 54.400,339.000 54.400 C 339.964 54.400,340.849 54.556,340.968 54.747 C 341.086 54.939,342.446 55.219,343.991 55.372 C 345.536 55.524,346.800 55.774,346.800 55.927 C 346.800 56.335,348.923 57.205,350.570 57.473 C 351.357 57.600,352.000 57.861,352.000 58.052 C 352.000 58.244,352.198 58.400,352.440 58.400 C 352.955 58.400,355.708 59.644,356.000 60.008 C 356.110 60.146,356.470 60.382,356.800 60.534 C 357.130 60.685,357.940 61.165,358.600 61.600 C 359.260 62.035,360.070 62.515,360.400 62.666 C 360.730 62.817,361.573 63.539,362.273 64.270 C 362.973 65.002,363.715 65.600,363.922 65.600 C 364.129 65.600,365.046 66.455,365.959 67.500 C 369.636 71.704,370.112 72.334,370.776 73.861 C 370.982 74.335,371.352 74.847,371.598 74.999 C 372.080 75.297,374.000 79.273,374.000 79.974 C 374.000 80.208,374.136 80.400,374.302 80.400 C 374.731 80.400,375.599 82.483,375.873 84.170 C 376.000 84.957,376.261 85.600,376.452 85.600 C 376.644 85.600,376.800 86.014,376.800 86.520 C 376.800 87.026,376.985 87.625,377.211 87.851 C 377.436 88.076,377.734 89.237,377.872 90.431 C 378.010 91.624,378.278 92.703,378.468 92.828 C 378.658 92.953,378.928 94.534,379.067 96.342 C 379.207 98.149,379.474 99.722,379.660 99.837 C 379.847 99.953,380.000 101.016,380.000 102.200 C 380.000 103.384,380.157 104.450,380.348 104.568 C 380.540 104.686,380.826 107.126,380.984 109.990 C 381.143 112.854,381.436 115.299,381.636 115.422 C 381.836 115.546,382.000 116.807,382.000 118.224 C 382.000 119.641,382.162 120.800,382.359 120.800 C 382.556 120.800,382.848 123.233,383.008 126.206 C 383.167 129.180,383.439 131.701,383.612 131.808 C 383.786 131.915,384.057 134.346,384.216 137.210 C 384.374 140.074,384.660 142.514,384.852 142.632 C 385.043 142.750,385.200 144.007,385.200 145.424 C 385.200 146.841,385.361 148.000,385.558 148.000 C 385.756 148.000,386.047 150.610,386.207 153.800 C 386.366 156.990,386.655 159.600,386.848 159.600 C 387.042 159.600,387.200 160.759,387.200 162.176 C 387.200 163.593,387.360 164.851,387.555 164.972 C 387.750 165.093,388.040 167.715,388.200 170.800 C 388.360 173.885,388.633 176.497,388.807 176.604 C 388.981 176.712,389.254 179.500,389.413 182.800 C 389.572 186.100,389.859 188.800,390.051 188.800 C 390.243 188.800,390.400 190.384,390.400 192.320 C 390.400 194.256,390.570 196.011,390.777 196.220 C 390.984 196.429,391.282 200.245,391.437 204.700 C 391.593 209.155,391.874 212.800,392.060 212.800 C 392.247 212.800,392.400 215.104,392.400 217.920 C 392.400 221.057,392.568 223.208,392.833 223.473 C 393.502 224.142,393.568 272.992,392.900 273.660 C 392.607 273.953,392.400 275.193,392.400 276.656 C 392.400 278.029,392.247 279.247,392.060 279.363 C 391.873 279.478,391.599 281.149,391.451 283.076 C 391.303 285.002,391.006 286.754,390.791 286.969 C 390.576 287.184,390.400 288.044,390.400 288.880 C 390.400 289.716,390.241 290.400,390.046 290.400 C 389.851 290.400,389.568 291.390,389.417 292.600 C 389.266 293.810,389.000 294.800,388.827 294.800 C 388.653 294.800,388.406 295.686,388.278 296.769 C 388.150 297.853,387.855 299.113,387.622 299.569 C 387.390 300.026,387.023 300.752,386.808 301.183 C 386.592 301.613,386.299 302.693,386.156 303.583 C 386.014 304.472,385.785 305.200,385.647 305.200 C 385.341 305.200,384.542 306.997,384.178 308.504 C 384.031 309.111,383.751 309.706,383.556 309.827 C 383.360 309.948,383.200 310.305,383.200 310.621 C 383.200 311.398,381.879 314.400,381.537 314.400 C 381.387 314.400,381.145 314.940,381.000 315.600 C 380.855 316.260,380.613 316.800,380.463 316.800 C 380.165 316.800,378.800 319.757,378.800 320.403 C 378.800 320.621,378.620 320.800,378.400 320.800 C 378.180 320.800,378.000 320.979,378.000 321.197 C 378.000 321.858,376.632 324.800,376.324 324.800 C 376.167 324.800,375.723 325.475,375.340 326.300 C 374.956 327.125,374.542 327.890,374.421 328.000 C 373.911 328.462,372.400 330.796,372.400 331.122 C 372.400 331.317,372.040 331.802,371.600 332.200 C 371.160 332.598,370.800 333.172,370.800 333.475 C 370.800 333.777,370.530 334.129,370.200 334.255 C 369.870 334.382,369.600 334.705,369.600 334.973 C 369.600 335.241,369.150 335.883,368.600 336.400 C 368.050 336.917,367.600 337.509,367.600 337.717 C 367.600 338.068,366.271 339.797,364.395 341.886 C 363.958 342.373,363.600 342.921,363.600 343.105 C 363.600 343.288,362.880 344.141,362.000 345.000 C 361.120 345.859,360.400 346.738,360.400 346.953 C 360.400 347.168,358.960 348.752,357.200 350.472 C 355.440 352.192,354.000 353.754,354.000 353.942 C 354.000 354.130,352.965 355.227,351.700 356.381 C 350.435 357.534,348.013 359.810,346.318 361.439 C 344.623 363.067,343.085 364.400,342.899 364.400 C 342.714 364.400,341.859 365.120,341.000 366.000 C 340.141 366.880,339.217 367.600,338.948 367.600 C 338.678 367.600,338.130 368.005,337.729 368.500 C 336.944 369.469,334.229 371.600,333.779 371.600 C 333.629 371.600,332.852 372.146,332.053 372.814 C 330.110 374.437,329.899 374.594,329.200 374.925 C 328.870 375.081,328.060 375.565,327.400 376.000 C 326.740 376.435,325.930 376.916,325.600 377.068 C 325.270 377.220,324.730 377.646,324.400 378.015 C 324.070 378.384,323.350 378.826,322.800 378.997 C 322.250 379.168,321.710 379.437,321.600 379.594 C 321.490 379.752,320.320 380.474,319.000 381.200 C 317.680 381.926,316.510 382.637,316.400 382.781 C 316.117 383.150,313.368 384.400,312.840 384.400 C 312.598 384.400,312.400 384.566,312.400 384.768 C 312.400 384.971,311.860 385.255,311.200 385.400 C 310.540 385.545,310.000 385.787,310.000 385.937 C 310.000 386.235,307.043 387.600,306.397 387.600 C 306.179 387.600,306.000 387.738,306.000 387.906 C 306.000 388.271,303.037 389.600,302.221 389.600 C 301.905 389.600,301.548 389.760,301.427 389.956 C 301.306 390.151,300.711 390.431,300.104 390.578 C 298.597 390.942,296.800 391.741,296.800 392.047 C 296.800 392.185,296.080 392.413,295.200 392.554 C 294.320 392.694,293.600 392.987,293.600 393.205 C 293.600 393.422,293.161 393.600,292.624 393.600 C 292.087 393.600,291.546 393.764,291.422 393.965 C 291.297 394.166,290.478 394.452,289.600 394.600 C 288.722 394.748,287.906 395.029,287.786 395.223 C 287.665 395.418,286.670 395.696,285.575 395.841 C 284.479 395.987,283.485 396.262,283.367 396.453 C 283.249 396.644,282.634 396.800,282.000 396.800 C 281.366 396.800,280.747 396.962,280.624 397.161 C 280.502 397.359,279.321 397.647,278.000 397.800 C 276.679 397.953,275.498 398.241,275.376 398.439 C 275.253 398.638,274.389 398.800,273.456 398.800 C 272.523 398.800,271.588 398.972,271.377 399.183 C 271.167 399.393,269.466 399.687,267.597 399.836 C 265.729 399.986,263.947 400.309,263.638 400.554 C 262.849 401.180,226.324 401.162,225.548 400.535 C 225.227 400.275,222.055 399.972,217.897 399.803 C 213.990 399.644,210.695 399.353,210.573 399.157 C 210.452 398.961,208.934 398.800,207.200 398.800 C 205.466 398.800,203.950 398.643,203.832 398.452 C 203.714 398.260,201.274 397.974,198.410 397.816 C 195.546 397.657,193.101 397.364,192.978 397.164 C 192.854 396.964,191.604 396.800,190.200 396.800 C 188.796 396.800,187.552 396.646,187.436 396.458 C 187.320 396.270,185.379 395.989,183.124 395.834 C 180.868 395.678,178.838 395.403,178.612 395.223 C 178.385 395.042,176.445 394.766,174.301 394.610 C 172.156 394.453,170.300 394.162,170.177 393.963 C 170.054 393.763,168.984 393.600,167.800 393.600 C 166.616 393.600,165.545 393.435,165.421 393.234 C 165.296 393.033,163.843 392.741,162.192 392.586 C 160.540 392.432,159.090 392.146,158.971 391.952 C 158.851 391.759,158.144 391.600,157.400 391.600 C 156.656 391.600,155.951 391.444,155.832 391.253 C 155.714 391.061,154.358 390.781,152.818 390.629 C 151.278 390.478,149.927 390.205,149.814 390.023 C 149.702 389.842,148.621 389.570,147.412 389.419 C 146.202 389.268,145.109 388.977,144.983 388.772 C 144.856 388.567,144.313 388.400,143.776 388.400 C 143.239 388.400,142.800 388.240,142.800 388.045 C 142.800 387.850,141.994 387.570,141.009 387.422 C 140.024 387.275,139.114 386.984,138.986 386.777 C 138.858 386.570,138.313 386.400,137.776 386.400 C 137.239 386.400,136.800 386.243,136.800 386.051 C 136.800 385.859,136.104 385.591,135.253 385.455 C 134.402 385.319,133.187 384.937,132.553 384.606 C 131.919 384.276,131.173 384.004,130.895 384.002 C 130.617 384.001,130.077 383.835,129.695 383.634 C 128.413 382.958,126.083 382.000,125.719 382.000 C 125.109 382.000,123.206 381.017,123.203 380.700 C 123.201 380.535,122.975 380.399,122.700 380.398 C 122.425 380.396,121.717 380.143,121.127 379.835 C 120.537 379.527,119.502 379.154,118.827 379.006 C 118.152 378.858,117.600 378.613,117.600 378.463 C 117.600 378.165,114.643 376.800,113.997 376.800 C 113.779 376.800,113.600 376.663,113.600 376.495 C 113.600 376.327,113.255 376.012,112.832 375.795 C 112.410 375.578,110.835 374.773,109.332 374.007 C 107.830 373.241,106.540 372.476,106.467 372.307 C 106.393 372.138,106.100 372.000,105.816 372.000 C 105.531 372.000,105.089 371.748,104.833 371.439 C 104.577 371.131,103.890 370.759,103.307 370.612 C 102.724 370.466,101.967 370.024,101.624 369.630 C 101.281 369.237,100.550 368.774,100.000 368.602 C 99.450 368.431,98.460 367.862,97.800 367.339 C 97.140 366.816,96.420 366.247,96.200 366.074 C 95.980 365.901,95.530 365.635,95.200 365.482 C 94.656 365.231,93.761 364.686,92.622 363.914 C 92.390 363.757,91.546 363.082,90.747 362.414 C 89.948 361.746,89.125 361.200,88.917 361.200 C 88.709 361.200,88.117 360.750,87.600 360.200 C 87.083 359.650,86.488 359.200,86.278 359.200 C 86.067 359.200,85.300 358.570,84.574 357.800 C 83.848 357.030,83.109 356.400,82.932 356.400 C 82.489 356.400,72.000 345.897,72.000 345.453 C 72.000 345.256,71.370 344.500,70.600 343.774 C 69.830 343.048,69.200 342.290,69.200 342.089 C 69.200 341.888,68.840 341.398,68.400 341.000 C 67.960 340.602,67.600 340.105,67.600 339.896 C 67.600 339.523,66.345 337.818,64.850 336.161 C 64.433 335.700,63.958 334.890,63.793 334.361 C 63.627 333.833,63.381 333.310,63.246 333.200 C 62.661 332.724,57.600 322.944,57.600 322.289 C 57.600 321.812,56.321 319.060,55.979 318.800 C 55.834 318.690,55.587 317.903,55.430 317.051 C 55.274 316.199,54.978 315.164,54.773 314.751 C 54.568 314.338,54.210 313.626,53.978 313.169 C 53.745 312.713,53.450 311.453,53.322 310.369 C 53.194 309.286,52.945 308.400,52.769 308.400 C 52.592 308.400,52.324 307.140,52.173 305.600 C 52.021 304.060,51.740 302.800,51.548 302.800 C 51.357 302.800,51.200 302.170,51.200 301.400 C 51.200 300.630,51.039 300.000,50.842 300.000 C 50.645 300.000,50.356 298.560,50.200 296.800 C 50.044 295.040,49.755 293.600,49.558 293.600 C 49.361 293.600,49.200 293.071,49.200 292.424 C 49.200 291.777,49.041 291.149,48.847 291.029 C 48.652 290.909,48.365 289.773,48.208 288.505 C 48.051 287.237,47.783 286.020,47.612 285.800 C 47.441 285.580,47.178 284.549,47.027 283.509 C 46.877 282.469,46.584 281.514,46.377 281.386 C 46.170 281.258,46.000 280.634,46.000 280.000 C 46.000 279.366,45.830 278.742,45.623 278.614 C 45.416 278.486,45.125 277.576,44.978 276.591 C 44.830 275.606,44.550 274.800,44.355 274.800 C 44.160 274.800,44.000 274.361,44.000 273.824 C 44.000 273.287,43.830 272.742,43.623 272.614 C 43.416 272.486,43.125 271.576,42.978 270.591 C 42.830 269.606,42.573 268.800,42.406 268.800 C 42.239 268.800,41.986 268.072,41.844 267.183 C 41.701 266.293,41.423 265.258,41.226 264.883 C 40.505 263.510,39.600 261.268,39.600 260.852 C 39.600 260.617,39.262 259.822,38.848 259.085 C 38.434 258.349,37.970 257.173,37.816 256.473 C 37.662 255.773,37.394 255.200,37.219 255.200 C 37.045 255.200,36.787 254.480,36.646 253.600 C 36.506 252.720,36.213 252.000,35.995 252.000 C 35.778 252.000,35.600 251.550,35.600 251.000 C 35.600 250.450,35.440 250.000,35.243 250.000 C 35.047 250.000,34.765 249.516,34.617 248.924 C 34.468 248.333,34.011 247.377,33.600 246.800 C 33.189 246.223,32.723 245.234,32.565 244.602 C 32.406 243.970,32.035 242.991,31.741 242.427 C 31.446 241.862,31.204 241.175,31.202 240.900 C 31.201 240.625,31.062 240.400,30.894 240.400 C 30.573 240.400,29.200 237.480,29.200 236.797 C 29.200 236.579,29.040 236.400,28.843 236.400 C 28.647 236.400,28.365 235.916,28.217 235.324 C 28.068 234.733,27.622 233.788,27.226 233.224 C 26.829 232.661,26.367 231.750,26.199 231.200 C 26.030 230.650,25.781 230.110,25.646 230.000 C 25.356 229.764,23.998 227.335,22.739 224.800 C 22.247 223.810,21.745 222.910,21.622 222.800 C 20.998 222.239,17.600 215.603,17.600 214.946 C 17.600 214.743,17.247 214.322,16.815 214.011 C 16.383 213.699,15.919 212.940,15.783 212.322 C 15.647 211.705,15.371 211.200,15.168 211.200 C 14.966 211.200,14.800 210.867,14.800 210.460 C 14.800 210.052,14.350 208.873,13.800 207.838 C 13.250 206.804,12.800 205.769,12.800 205.539 C 12.800 205.147,11.925 202.963,11.217 201.587 C 11.044 201.250,10.775 200.397,10.620 199.691 C 10.465 198.986,10.172 198.306,9.969 198.181 C 9.766 198.055,9.600 197.459,9.600 196.856 C 9.600 196.253,9.415 195.575,9.189 195.349 C 8.964 195.124,8.666 193.963,8.528 192.769 C 8.390 191.576,8.129 190.502,7.947 190.382 C 7.766 190.262,7.497 188.597,7.350 186.682 C 7.202 184.767,6.929 183.200,6.741 183.200 C 6.553 183.200,6.400 181.771,6.400 180.024 C 6.400 178.277,6.220 176.736,6.000 176.600 C 5.471 176.273,5.471 168.800,6.000 168.800 C 6.237 168.800,6.400 167.341,6.400 165.224 C 6.400 163.257,6.558 161.549,6.752 161.430 C 6.946 161.310,7.232 159.679,7.388 157.806 C 7.544 155.933,7.818 154.400,7.997 154.400 C 8.175 154.400,8.447 153.320,8.600 151.999 C 8.753 150.679,9.041 149.498,9.239 149.376 C 9.438 149.253,9.600 148.713,9.600 148.176 C 9.600 147.639,9.757 147.200,9.949 147.200 C 10.141 147.200,10.414 146.472,10.556 145.583 C 10.796 144.087,11.463 142.478,12.042 142.000 C 12.176 141.890,12.409 141.125,12.560 140.300 C 12.712 139.475,13.008 138.800,13.218 138.800 C 13.428 138.800,13.600 138.455,13.600 138.032 C 13.600 137.218,16.791 130.693,17.300 130.467 C 17.465 130.393,17.600 130.112,17.600 129.841 C 17.600 129.266,21.091 122.326,21.538 122.013 C 21.932 121.737,23.200 119.010,23.200 118.440 C 23.200 118.198,23.366 118.000,23.568 118.000 C 23.771 118.000,24.047 117.495,24.183 116.878 C 24.319 116.260,24.783 115.501,25.215 115.189 C 25.647 114.878,26.000 114.484,26.000 114.314 C 26.000 113.719,27.392 110.800,27.676 110.800 C 27.833 110.800,28.275 110.125,28.658 109.300 C 29.041 108.475,29.725 107.260,30.178 106.600 C 31.472 104.716,31.969 103.876,32.429 102.801 C 32.664 102.251,33.142 101.485,33.492 101.098 C 34.240 100.272,35.084 98.887,35.440 97.900 C 35.579 97.515,35.831 97.200,36.000 97.200 C 36.169 97.200,36.412 96.885,36.542 96.500 C 36.824 95.659,37.431 94.693,38.900 92.744 C 39.505 91.941,40.000 91.157,40.000 91.000 C 40.000 90.844,40.453 90.150,41.006 89.458 C 41.559 88.766,42.153 88.020,42.326 87.800 C 42.499 87.580,42.768 87.130,42.925 86.800 C 43.081 86.470,43.522 85.727,43.904 85.149 C 44.287 84.571,44.954 83.536,45.386 82.849 C 45.819 82.162,46.318 81.600,46.496 81.600 C 46.674 81.600,47.003 81.195,47.227 80.700 C 47.889 79.237,48.642 78.021,49.341 77.288 C 50.590 75.976,52.000 74.083,52.000 73.717 C 52.000 73.515,52.540 72.832,53.200 72.200 C 53.860 71.568,54.400 70.880,54.400 70.671 C 54.400 70.462,54.850 69.875,55.400 69.365 C 55.950 68.855,56.400 68.281,56.400 68.089 C 56.400 67.897,56.850 67.317,57.400 66.800 C 57.950 66.283,58.400 65.656,58.400 65.405 C 58.400 65.155,58.940 64.432,59.600 63.800 C 60.260 63.168,60.800 62.492,60.800 62.298 C 60.800 62.105,61.430 61.352,62.200 60.626 C 62.970 59.900,63.600 59.135,63.600 58.928 C 63.600 58.720,64.140 58.032,64.800 57.400 C 65.460 56.768,66.000 56.089,66.000 55.891 C 66.000 55.693,67.080 54.468,68.400 53.168 C 69.720 51.869,70.800 50.671,70.800 50.508 C 70.800 50.135,81.290 39.600,81.662 39.600 C 81.812 39.600,82.830 38.700,83.924 37.600 C 85.018 36.500,86.082 35.600,86.287 35.600 C 86.492 35.600,87.083 35.150,87.600 34.600 C 88.117 34.050,88.765 33.600,89.041 33.600 C 89.316 33.600,89.870 33.194,90.271 32.698 C 90.672 32.202,91.522 31.437,92.160 30.998 C 94.906 29.108,95.437 28.778,96.100 28.549 C 96.485 28.416,96.800 28.152,96.800 27.963 C 96.800 27.775,97.631 27.210,98.648 26.710 C 101.673 25.220,102.000 25.024,102.000 24.705 C 102.000 24.537,102.248 24.400,102.551 24.400 C 102.854 24.400,103.311 24.148,103.567 23.839 C 103.823 23.531,104.519 23.157,105.112 23.008 C 105.706 22.859,106.284 22.616,106.396 22.468 C 106.819 21.912,113.298 18.800,114.032 18.800 C 114.455 18.800,114.800 18.622,114.800 18.405 C 114.800 18.187,115.520 17.894,116.400 17.754 C 117.280 17.613,118.000 17.341,118.000 17.149 C 118.000 16.957,118.405 16.794,118.900 16.787 C 119.395 16.780,120.149 16.510,120.576 16.187 C 121.004 15.864,121.769 15.600,122.276 15.600 C 122.784 15.600,123.200 15.420,123.200 15.200 C 123.200 14.980,123.639 14.800,124.176 14.800 C 124.713 14.800,125.261 14.625,125.393 14.412 C 125.525 14.198,126.530 13.904,127.625 13.759 C 128.721 13.613,129.711 13.343,129.825 13.159 C 129.940 12.974,130.930 12.704,132.025 12.559 C 133.121 12.413,134.115 12.138,134.233 11.947 C 134.351 11.756,134.966 11.600,135.600 11.600 C 136.234 11.600,136.855 11.435,136.979 11.234 C 137.104 11.033,138.557 10.741,140.208 10.586 C 141.860 10.432,143.310 10.146,143.429 9.952 C 143.549 9.759,144.411 9.600,145.344 9.600 C 146.277 9.600,147.213 9.427,147.425 9.215 C 147.637 9.003,150.289 8.705,153.320 8.553 C 156.350 8.401,158.923 8.125,159.038 7.938 C 159.312 7.495,175.889 7.497,176.163 7.941 " stroke="none" fill="#fcfcfc" fill-rule="evenodd"></path><path id="path1" d="M159.038 8.338 C 158.923 8.525,156.358 8.801,153.339 8.952 C 150.319 9.104,147.657 9.382,147.424 9.570 C 147.191 9.758,145.515 10.040,143.700 10.197 C 141.885 10.355,140.400 10.645,140.400 10.842 C 140.400 11.039,139.691 11.200,138.824 11.200 C 137.957 11.200,137.147 11.362,137.024 11.561 C 136.902 11.759,135.721 12.047,134.400 12.200 C 133.079 12.353,131.908 12.625,131.797 12.805 C 131.686 12.984,130.832 13.246,129.898 13.388 C 128.323 13.627,127.177 14.004,125.549 14.819 C 125.191 14.999,124.201 15.274,123.349 15.430 C 122.497 15.587,121.710 15.824,121.600 15.958 C 121.149 16.504,119.606 17.162,118.149 17.429 C 117.297 17.586,116.245 17.958,115.811 18.257 C 115.377 18.556,114.612 18.800,114.111 18.800 C 113.610 18.800,113.200 18.938,113.200 19.106 C 113.200 19.427,110.280 20.800,109.597 20.800 C 109.379 20.800,109.200 20.938,109.200 21.106 C 109.200 21.427,106.280 22.800,105.597 22.800 C 105.379 22.800,105.200 22.959,105.200 23.153 C 105.200 23.348,104.885 23.612,104.500 23.742 C 103.786 23.981,103.129 24.370,101.000 25.810 C 100.340 26.256,99.125 26.972,98.300 27.401 C 97.475 27.831,96.800 28.300,96.800 28.444 C 96.800 28.589,96.485 28.812,96.100 28.942 C 94.853 29.360,89.987 32.954,89.667 33.692 C 89.593 33.862,89.310 34.000,89.036 34.000 C 88.763 34.000,88.117 34.450,87.600 35.000 C 87.083 35.550,86.497 36.000,86.297 36.000 C 85.642 36.000,70.800 50.286,70.800 50.917 C 70.800 51.111,69.810 52.236,68.600 53.417 C 67.390 54.599,66.400 55.718,66.400 55.904 C 66.400 56.091,65.770 56.854,65.000 57.600 C 64.230 58.346,63.600 59.118,63.600 59.314 C 63.600 59.511,63.170 60.151,62.643 60.736 C 59.816 63.881,58.800 65.135,58.800 65.479 C 58.800 65.689,58.350 66.283,57.800 66.800 C 57.250 67.317,56.800 67.895,56.800 68.084 C 56.800 68.274,56.447 68.827,56.016 69.314 C 52.999 72.722,51.539 74.640,50.924 76.000 C 50.775 76.330,50.314 76.843,49.901 77.140 C 49.488 77.438,48.981 78.068,48.776 78.540 C 48.375 79.462,47.534 80.873,47.190 81.200 C 46.612 81.749,44.400 84.750,44.400 84.984 C 44.400 85.243,42.449 87.989,41.973 88.400 C 41.846 88.510,41.618 88.870,41.466 89.200 C 41.315 89.530,40.835 90.340,40.400 91.000 C 39.965 91.660,39.485 92.470,39.335 92.800 C 39.184 93.130,38.822 93.544,38.530 93.720 C 38.239 93.896,38.000 94.273,38.000 94.558 C 38.000 94.843,37.640 95.402,37.200 95.800 C 36.760 96.198,36.400 96.752,36.400 97.031 C 36.400 97.310,35.995 98.049,35.500 98.672 C 34.349 100.123,33.751 101.093,33.047 102.651 C 32.736 103.339,32.299 104.015,32.075 104.153 C 31.852 104.291,31.278 105.213,30.799 106.202 C 30.320 107.191,29.779 108.000,29.596 108.000 C 29.413 108.000,29.145 108.540,29.000 109.200 C 28.855 109.860,28.601 110.400,28.436 110.400 C 28.272 110.400,27.549 111.570,26.830 113.000 C 26.111 114.430,25.403 115.600,25.256 115.600 C 24.963 115.600,23.600 118.565,23.600 119.203 C 23.600 119.421,23.440 119.600,23.243 119.600 C 23.047 119.600,22.784 120.009,22.659 120.508 C 22.534 121.007,22.064 121.810,21.615 122.291 C 21.167 122.773,20.800 123.263,20.800 123.381 C 20.800 123.891,19.386 126.800,19.137 126.800 C 18.987 126.800,18.745 127.340,18.600 128.000 C 18.455 128.660,18.171 129.200,17.968 129.200 C 17.766 129.200,17.600 129.379,17.600 129.597 C 17.600 130.280,16.227 133.200,15.906 133.200 C 15.738 133.200,15.600 133.379,15.600 133.597 C 15.600 134.280,14.227 137.200,13.906 137.200 C 13.738 137.200,13.600 137.616,13.600 138.124 C 13.600 138.631,13.336 139.396,13.013 139.824 C 12.690 140.251,12.420 140.971,12.413 141.424 C 12.406 141.876,12.136 142.596,11.813 143.024 C 11.490 143.451,11.220 144.205,11.213 144.700 C 11.206 145.195,11.040 145.600,10.845 145.600 C 10.650 145.600,10.370 146.406,10.222 147.391 C 10.075 148.376,9.802 149.275,9.616 149.390 C 9.431 149.505,9.153 150.679,9.000 152.000 C 8.847 153.321,8.559 154.502,8.361 154.624 C 8.162 154.747,8.000 155.431,8.000 156.144 C 8.000 156.857,7.816 157.624,7.590 157.850 C 7.365 158.075,7.067 160.631,6.929 163.530 C 6.790 166.428,6.524 168.800,6.338 168.800 C 5.896 168.800,5.897 176.289,6.339 176.563 C 6.526 176.678,6.804 179.164,6.958 182.086 C 7.111 185.009,7.408 187.460,7.618 187.533 C 7.828 187.607,8.000 188.181,8.000 188.810 C 8.000 189.438,8.154 190.048,8.343 190.165 C 8.531 190.281,8.786 191.350,8.909 192.539 C 9.032 193.729,9.318 195.039,9.544 195.451 C 9.771 195.863,10.064 196.875,10.196 197.700 C 10.328 198.525,10.608 199.200,10.818 199.200 C 11.028 199.200,11.200 199.639,11.200 200.176 C 11.200 200.713,11.360 201.251,11.555 201.372 C 11.750 201.493,12.028 202.223,12.173 202.996 C 12.318 203.768,12.585 204.400,12.767 204.400 C 12.949 204.400,13.213 205.120,13.354 206.000 C 13.494 206.880,13.742 207.601,13.905 207.603 C 14.207 207.606,15.200 209.504,15.200 210.077 C 15.200 210.689,16.592 213.600,16.884 213.600 C 17.200 213.600,18.800 216.894,18.800 217.545 C 18.800 217.758,18.935 217.993,19.100 218.067 C 19.412 218.205,20.528 220.122,22.088 223.200 C 22.589 224.190,23.090 225.090,23.200 225.200 C 23.965 225.965,32.678 243.433,33.026 244.900 C 33.169 245.505,33.447 246.000,33.643 246.000 C 33.840 246.000,34.000 246.179,34.000 246.397 C 34.000 247.080,35.373 250.000,35.694 250.000 C 35.862 250.000,36.000 250.416,36.000 250.924 C 36.000 251.431,36.264 252.196,36.587 252.624 C 36.910 253.051,37.186 253.760,37.200 254.200 C 37.214 254.640,37.490 255.349,37.813 255.776 C 38.136 256.204,38.400 256.969,38.400 257.476 C 38.400 257.984,38.566 258.400,38.768 258.400 C 38.971 258.400,39.262 258.973,39.416 259.673 C 39.570 260.373,40.032 261.545,40.444 262.278 C 40.855 263.011,41.307 264.328,41.447 265.205 C 41.587 266.082,41.859 266.800,42.051 266.800 C 42.243 266.800,42.400 267.239,42.400 267.776 C 42.400 268.313,42.564 268.854,42.765 268.978 C 42.966 269.103,43.252 269.922,43.400 270.800 C 43.548 271.678,43.824 272.491,44.012 272.607 C 44.200 272.724,44.475 273.624,44.622 274.609 C 44.770 275.594,45.050 276.400,45.245 276.400 C 45.440 276.400,45.600 276.839,45.600 277.376 C 45.600 277.913,45.756 278.449,45.947 278.567 C 46.138 278.685,46.413 279.679,46.559 280.775 C 46.704 281.870,46.998 282.875,47.212 283.007 C 47.425 283.139,47.600 283.766,47.600 284.400 C 47.600 285.034,47.759 285.651,47.953 285.771 C 48.148 285.891,48.435 287.027,48.592 288.295 C 48.749 289.563,49.040 290.798,49.239 291.041 C 49.437 291.283,49.716 292.594,49.858 293.953 C 50.000 295.313,50.270 296.520,50.458 296.636 C 50.646 296.752,50.800 297.557,50.800 298.424 C 50.800 299.291,50.969 300.000,51.176 300.000 C 51.382 300.000,51.676 301.264,51.828 302.809 C 51.981 304.354,52.261 305.714,52.453 305.832 C 52.644 305.951,52.800 306.566,52.800 307.200 C 52.800 307.834,52.963 308.454,53.163 308.577 C 53.362 308.700,53.649 309.700,53.800 310.800 C 53.951 311.900,54.228 312.894,54.414 313.009 C 54.601 313.124,54.875 314.024,55.022 315.009 C 55.170 315.994,55.450 316.800,55.645 316.800 C 55.840 316.800,56.000 317.250,56.000 317.800 C 56.000 318.350,56.180 318.800,56.400 318.800 C 56.620 318.800,56.800 318.998,56.800 319.240 C 56.800 319.712,57.416 321.176,59.244 325.049 C 59.880 326.396,60.400 327.686,60.400 327.916 C 60.400 328.145,60.535 328.393,60.700 328.467 C 61.020 328.609,62.200 330.656,63.660 333.600 C 64.151 334.590,64.923 335.772,65.376 336.226 C 66.304 337.156,67.034 338.219,67.555 339.400 C 67.749 339.840,68.289 340.543,68.754 340.962 C 69.219 341.381,69.600 341.859,69.600 342.025 C 69.600 342.742,82.653 356.400,83.338 356.400 C 83.544 356.400,84.182 356.850,84.756 357.401 C 86.547 359.117,88.689 360.800,89.083 360.800 C 89.291 360.800,89.883 361.250,90.400 361.800 C 90.917 362.350,91.578 362.800,91.870 362.800 C 92.161 362.800,92.400 362.984,92.400 363.210 C 92.400 363.435,92.805 363.803,93.300 364.027 C 94.866 364.736,96.172 365.549,96.602 366.083 C 97.122 366.729,98.123 367.356,100.300 368.403 C 101.235 368.852,102.000 369.381,102.000 369.578 C 102.000 369.775,102.528 370.052,103.172 370.194 C 103.817 370.336,104.552 370.701,104.805 371.006 C 105.058 371.311,106.105 371.962,107.132 372.452 C 108.160 372.943,109.090 373.468,109.200 373.619 C 109.310 373.769,109.850 374.032,110.400 374.204 C 110.950 374.375,111.940 374.910,112.600 375.393 C 113.932 376.367,116.480 377.600,117.160 377.600 C 117.402 377.600,117.601 377.735,117.603 377.900 C 117.607 378.233,119.520 379.199,120.180 379.202 C 120.411 379.202,121.680 379.742,123.000 380.400 C 124.320 381.058,125.715 381.598,126.100 381.598 C 126.485 381.599,126.800 381.772,126.800 381.982 C 126.800 382.192,127.432 382.482,128.204 382.627 C 128.977 382.772,129.707 383.050,129.828 383.245 C 129.949 383.440,130.487 383.600,131.024 383.600 C 131.561 383.600,132.000 383.778,132.000 383.995 C 132.000 384.213,132.720 384.506,133.600 384.646 C 134.480 384.787,135.200 385.036,135.200 385.200 C 135.200 385.364,135.928 385.614,136.817 385.756 C 137.707 385.899,138.787 386.192,139.217 386.408 C 139.648 386.623,140.352 386.977,140.783 387.192 C 141.213 387.408,142.293 387.701,143.183 387.844 C 144.072 387.986,144.800 388.236,144.800 388.399 C 144.800 388.563,145.875 388.818,147.188 388.967 C 148.501 389.115,149.682 389.409,149.811 389.618 C 149.941 389.828,150.566 390.000,151.200 390.000 C 151.834 390.000,152.451 390.159,152.571 390.352 C 152.690 390.546,154.140 390.832,155.792 390.986 C 157.443 391.141,158.896 391.433,159.021 391.634 C 159.145 391.835,159.957 392.000,160.824 392.000 C 161.691 392.000,162.400 392.164,162.400 392.364 C 162.400 392.564,163.975 392.842,165.900 392.982 C 167.825 393.122,169.693 393.396,170.050 393.590 C 170.408 393.785,172.437 394.072,174.561 394.228 C 176.684 394.384,178.517 394.666,178.634 394.856 C 178.751 395.045,179.636 395.200,180.600 395.200 C 181.564 395.200,182.453 395.362,182.575 395.560 C 182.697 395.757,185.051 396.049,187.805 396.208 C 190.559 396.367,192.910 396.655,193.030 396.848 C 193.149 397.042,194.306 397.200,195.600 397.200 C 196.894 397.200,198.053 397.363,198.176 397.562 C 198.299 397.761,201.100 398.054,204.400 398.213 C 207.700 398.372,210.400 398.640,210.400 398.808 C 210.400 398.976,213.733 399.245,217.807 399.406 C 221.880 399.566,225.311 399.856,225.430 400.049 C 225.550 400.242,227.797 400.400,230.424 400.400 C 233.341 400.400,235.200 400.556,235.200 400.800 C 235.200 401.347,257.462 401.347,257.800 400.800 C 257.936 400.580,259.286 400.400,260.800 400.400 C 262.314 400.400,263.648 400.245,263.765 400.056 C 263.882 399.867,265.533 399.586,267.434 399.431 C 269.334 399.277,271.184 398.991,271.545 398.794 C 271.905 398.598,273.413 398.325,274.896 398.188 C 276.378 398.050,277.694 397.771,277.819 397.569 C 277.945 397.366,278.566 397.200,279.200 397.200 C 279.834 397.200,280.453 397.038,280.576 396.839 C 280.698 396.641,281.879 396.353,283.199 396.200 C 284.520 396.047,285.600 395.759,285.600 395.561 C 285.600 395.362,286.039 395.200,286.576 395.200 C 287.113 395.200,287.658 395.030,287.786 394.823 C 287.914 394.616,288.824 394.325,289.809 394.178 C 290.794 394.030,291.600 393.773,291.600 393.606 C 291.600 393.439,292.320 393.187,293.200 393.046 C 294.080 392.906,294.800 392.613,294.800 392.395 C 294.800 392.178,295.250 392.000,295.800 392.000 C 296.350 392.000,296.800 391.828,296.800 391.618 C 296.800 391.408,297.475 391.112,298.300 390.960 C 299.125 390.809,299.890 390.576,300.000 390.442 C 300.348 390.021,301.970 389.200,302.456 389.200 C 303.056 389.200,315.902 382.836,316.527 382.229 C 317.108 381.665,319.759 380.400,320.360 380.400 C 320.602 380.400,320.800 380.228,320.800 380.019 C 320.800 379.809,321.475 379.324,322.300 378.940 C 323.125 378.557,323.944 378.008,324.120 377.722 C 324.296 377.435,324.673 377.200,324.958 377.200 C 325.243 377.200,325.802 376.840,326.200 376.400 C 326.598 375.960,327.083 375.600,327.278 375.600 C 327.705 375.600,330.145 373.923,330.333 373.500 C 330.407 373.335,330.694 373.200,330.971 373.200 C 331.249 373.200,331.819 372.819,332.238 372.354 C 332.657 371.889,333.360 371.349,333.800 371.155 C 335.187 370.543,336.128 369.840,337.356 368.500 C 338.011 367.785,338.748 367.200,338.992 367.200 C 339.237 367.200,340.141 366.480,341.000 365.600 C 341.859 364.720,342.751 363.996,342.981 363.992 C 343.212 363.987,344.817 362.547,346.550 360.792 C 348.282 359.036,349.840 357.600,350.013 357.600 C 350.185 357.600,351.197 356.606,352.263 355.390 C 353.328 354.175,355.595 351.770,357.300 350.046 C 359.005 348.321,360.400 346.742,360.400 346.537 C 360.400 346.331,361.120 345.459,362.000 344.600 C 362.880 343.741,363.600 342.870,363.600 342.665 C 363.600 342.460,364.050 341.875,364.600 341.365 C 365.150 340.855,365.600 340.281,365.600 340.089 C 365.600 339.897,366.050 339.317,366.600 338.800 C 367.150 338.283,367.600 337.650,367.600 337.392 C 367.600 337.135,367.960 336.598,368.400 336.200 C 368.840 335.802,369.200 335.300,369.200 335.085 C 369.200 334.870,369.527 334.403,369.928 334.047 C 370.328 333.691,370.780 333.130,370.932 332.800 C 371.084 332.470,371.569 331.660,372.009 331.000 C 372.449 330.340,372.918 329.485,373.051 329.100 C 373.184 328.715,373.444 328.400,373.628 328.400 C 373.812 328.400,374.279 327.725,374.666 326.900 C 375.053 326.075,375.576 325.187,375.829 324.927 C 376.436 324.302,382.800 311.456,382.800 310.856 C 382.800 310.370,383.621 308.748,384.042 308.400 C 384.176 308.290,384.409 307.525,384.560 306.700 C 384.712 305.875,385.008 305.200,385.218 305.200 C 385.428 305.200,385.600 304.761,385.600 304.224 C 385.600 303.687,385.764 303.146,385.965 303.022 C 386.166 302.897,386.452 302.078,386.600 301.200 C 386.748 300.322,387.017 299.513,387.197 299.402 C 387.378 299.290,387.649 298.300,387.800 297.200 C 387.951 296.100,388.238 295.100,388.437 294.977 C 388.637 294.854,388.800 294.313,388.800 293.776 C 388.800 293.239,388.962 292.800,389.159 292.800 C 389.357 292.800,389.645 291.539,389.800 289.998 C 389.955 288.458,390.243 287.097,390.441 286.975 C 390.638 286.853,390.800 286.043,390.800 285.176 C 390.800 284.309,390.962 283.600,391.161 283.600 C 391.359 283.600,391.652 281.485,391.811 278.900 C 391.980 276.170,392.290 274.080,392.551 273.914 C 393.135 273.543,393.065 224.207,392.479 223.483 C 392.264 223.217,391.957 218.633,391.797 213.294 C 391.637 207.956,391.347 203.491,391.153 203.371 C 390.959 203.251,390.800 201.644,390.800 199.800 C 390.800 197.956,390.645 196.352,390.456 196.235 C 390.267 196.118,389.983 193.092,389.826 189.511 C 389.668 185.930,389.373 182.829,389.170 182.620 C 388.966 182.411,388.800 181.027,388.800 179.544 C 388.800 178.061,388.642 176.749,388.449 176.630 C 388.255 176.511,387.967 173.935,387.807 170.906 C 387.647 167.878,387.369 165.219,387.190 164.997 C 387.010 164.775,386.734 162.210,386.575 159.297 C 386.417 156.384,386.133 154.000,385.944 154.000 C 385.755 154.000,385.600 152.650,385.600 151.000 C 385.600 149.350,385.438 148.000,385.241 148.000 C 385.044 148.000,384.752 145.567,384.592 142.594 C 384.433 139.620,384.145 137.089,383.951 136.970 C 383.758 136.851,383.600 135.694,383.600 134.400 C 383.600 133.106,383.442 131.949,383.249 131.830 C 383.055 131.711,382.767 129.180,382.608 126.206 C 382.448 123.233,382.178 120.800,382.007 120.800 C 381.836 120.800,381.566 118.549,381.408 115.799 C 381.249 113.048,380.957 110.697,380.760 110.575 C 380.562 110.453,380.400 109.114,380.400 107.600 C 380.400 106.086,380.240 104.748,380.044 104.627 C 379.848 104.506,379.558 102.424,379.400 100.000 C 379.242 97.576,378.970 95.505,378.795 95.397 C 378.621 95.290,378.349 94.083,378.190 92.717 C 378.032 91.350,377.744 89.910,377.551 89.516 C 377.358 89.122,377.043 88.479,376.851 88.087 C 376.659 87.695,376.378 86.750,376.228 85.987 C 375.913 84.396,375.747 83.968,374.046 80.351 C 373.361 78.894,372.800 77.499,372.800 77.251 C 372.800 77.003,372.641 76.800,372.447 76.800 C 372.252 76.800,371.984 76.485,371.851 76.100 C 371.444 74.922,368.907 71.289,367.700 70.154 C 367.205 69.689,366.800 69.140,366.800 68.935 C 366.800 68.456,363.885 65.600,363.396 65.600 C 363.192 65.600,362.659 65.195,362.212 64.700 C 361.243 63.629,358.983 62.000,358.465 62.000 C 358.263 62.000,357.872 61.728,357.597 61.396 C 357.321 61.063,356.219 60.390,355.148 59.898 C 354.076 59.407,353.200 58.871,353.200 58.707 C 353.200 58.543,352.480 58.294,351.600 58.154 C 350.720 58.013,350.000 57.764,350.000 57.600 C 350.000 57.436,349.280 57.187,348.400 57.046 C 347.520 56.906,346.800 56.613,346.800 56.395 C 346.800 56.178,346.170 56.000,345.400 56.000 C 344.630 56.000,344.000 55.836,344.000 55.636 C 344.000 55.436,342.467 55.144,340.594 54.988 C 338.721 54.832,337.090 54.546,336.970 54.352 C 336.851 54.158,331.014 54.000,324.000 54.000 C 316.986 54.000,311.154 53.848,311.039 53.663 C 310.925 53.478,307.915 53.206,304.352 53.059 C 300.788 52.912,297.676 52.635,297.436 52.443 C 297.196 52.251,295.245 51.966,293.101 51.810 C 290.956 51.653,289.100 51.362,288.977 51.163 C 288.854 50.963,288.043 50.800,287.176 50.800 C 286.309 50.800,285.600 50.638,285.600 50.439 C 285.600 50.241,284.520 49.953,283.199 49.800 C 281.879 49.647,280.711 49.380,280.605 49.207 C 280.498 49.035,279.389 48.766,278.141 48.610 C 276.893 48.454,275.585 48.184,275.236 48.010 C 273.757 47.273,272.516 46.830,271.213 46.572 C 270.450 46.422,269.505 46.141,269.113 45.949 C 268.721 45.757,268.048 45.423,267.617 45.208 C 267.187 44.992,266.107 44.699,265.217 44.556 C 264.328 44.414,263.600 44.141,263.600 43.949 C 263.600 43.757,263.402 43.600,263.160 43.600 C 262.919 43.600,262.064 43.309,261.260 42.953 C 257.789 41.413,257.260 41.200,256.919 41.200 C 256.341 41.200,254.407 40.225,254.403 39.932 C 254.401 39.784,253.860 39.545,253.200 39.400 C 252.540 39.255,252.000 39.004,252.000 38.842 C 252.000 38.680,250.425 37.760,248.500 36.798 C 246.575 35.837,244.464 34.679,243.808 34.225 C 242.073 33.024,241.091 32.446,240.300 32.160 C 239.915 32.021,239.600 31.769,239.600 31.600 C 239.600 31.431,239.285 31.184,238.900 31.051 C 238.515 30.918,237.660 30.445,237.000 30.000 C 236.340 29.555,235.485 29.082,235.100 28.949 C 234.715 28.816,234.400 28.569,234.400 28.400 C 234.400 28.231,234.085 27.979,233.700 27.840 C 232.943 27.567,232.057 27.052,230.190 25.800 C 227.976 24.316,227.402 23.978,226.700 23.742 C 226.315 23.612,226.000 23.348,226.000 23.153 C 226.000 22.959,225.821 22.800,225.603 22.800 C 224.920 22.800,222.000 21.427,222.000 21.106 C 222.000 20.938,221.821 20.800,221.603 20.800 C 220.957 20.800,218.000 19.435,218.000 19.137 C 218.000 18.987,217.460 18.745,216.800 18.600 C 216.140 18.455,215.600 18.179,215.600 17.986 C 215.600 17.794,214.925 17.512,214.100 17.360 C 213.275 17.209,212.510 16.976,212.400 16.842 C 212.059 16.429,210.434 15.600,209.966 15.600 C 209.524 15.600,207.266 14.687,205.869 13.944 C 205.468 13.730,204.253 13.450,203.169 13.322 C 202.086 13.194,201.200 12.947,201.200 12.773 C 201.200 12.600,200.210 12.334,199.000 12.183 C 197.790 12.032,196.800 11.749,196.800 11.554 C 196.800 11.359,196.170 11.200,195.400 11.200 C 194.630 11.200,194.000 11.039,194.000 10.842 C 194.000 10.645,192.515 10.355,190.700 10.197 C 188.885 10.040,187.215 9.762,186.988 9.580 C 186.762 9.398,184.281 9.121,181.475 8.965 C 178.670 8.809,176.279 8.528,176.163 8.341 C 175.889 7.897,159.312 7.895,159.038 8.338 " stroke="none" fill="#d4dce4" fill-rule="evenodd"></path><path id="path2" d="" stroke="none" fill="#f4100f0" fill-rule="evenodd"></path><path id="path3" d="M159.061 7.900 C 158.958 8.065,161.423 8.153,164.537 8.096 C 175.134 7.902,176.217 7.761,167.724 7.680 C 163.062 7.636,159.163 7.735,159.061 7.900 M145.600 9.495 C 144.610 9.581,143.673 9.775,143.519 9.927 C 143.364 10.079,144.084 10.140,145.119 10.063 C 146.153 9.986,147.171 9.760,147.380 9.561 C 147.589 9.363,147.679 9.231,147.580 9.270 C 147.481 9.308,146.590 9.410,145.600 9.495 M187.119 9.660 C 187.273 9.804,188.247 9.986,189.281 10.063 C 190.316 10.140,191.036 10.085,190.881 9.940 C 190.727 9.796,189.753 9.614,188.719 9.537 C 187.684 9.460,186.964 9.515,187.119 9.660 M137.000 11.200 C 136.864 11.420,136.178 11.625,135.476 11.654 C 134.438 11.699,134.379 11.743,135.160 11.890 C 135.688 11.990,136.498 11.881,136.960 11.648 C 137.422 11.415,138.430 11.158,139.200 11.076 C 140.527 10.936,140.513 10.925,138.924 10.864 C 138.002 10.829,137.136 10.980,137.000 11.200 M197.200 11.755 C 197.200 11.840,197.730 11.987,198.379 12.082 C 199.027 12.177,199.467 12.108,199.355 11.928 C 199.157 11.607,197.200 11.450,197.200 11.755 M131.000 12.685 C 129.775 12.980,129.398 13.528,130.576 13.303 C 131.146 13.194,131.710 12.946,131.830 12.752 C 131.949 12.559,131.992 12.421,131.924 12.446 C 131.856 12.472,131.440 12.579,131.000 12.685 M124.600 14.685 C 123.375 14.980,122.998 15.528,124.176 15.303 C 124.746 15.194,125.310 14.946,125.430 14.752 C 125.549 14.559,125.592 14.421,125.524 14.446 C 125.456 14.472,125.040 14.579,124.600 14.685 M120.200 16.400 C 120.064 16.620,119.614 16.800,119.200 16.800 C 118.786 16.800,118.346 16.963,118.223 17.163 C 118.100 17.362,118.404 17.424,118.899 17.301 C 119.978 17.031,121.574 16.000,120.913 16.000 C 120.657 16.000,120.336 16.180,120.200 16.400 M111.606 19.623 C 110.840 20.050,110.480 20.396,110.806 20.391 C 111.133 20.386,111.850 20.030,112.400 19.600 C 113.656 18.617,113.396 18.625,111.606 19.623 M218.800 19.556 C 219.350 20.011,220.070 20.385,220.400 20.389 C 220.926 20.394,220.606 20.181,218.301 18.990 C 218.026 18.847,218.250 19.102,218.800 19.556 M103.256 24.013 C 102.736 24.446,102.501 24.800,102.732 24.800 C 102.963 24.800,103.272 24.607,103.417 24.372 C 103.563 24.137,104.068 23.788,104.541 23.597 C 105.038 23.397,105.147 23.246,104.800 23.239 C 104.470 23.232,103.775 23.581,103.256 24.013 M226.659 23.597 C 227.132 23.788,227.637 24.137,227.783 24.372 C 227.928 24.607,228.241 24.800,228.478 24.800 C 228.714 24.800,228.450 24.440,227.891 24.000 C 227.331 23.560,226.632 23.211,226.337 23.225 C 226.042 23.239,226.187 23.407,226.659 23.597 M100.400 25.800 C 100.126 26.130,99.609 26.414,99.251 26.432 C 98.842 26.451,98.785 26.538,99.096 26.664 C 99.369 26.774,100.068 26.490,100.650 26.032 C 101.232 25.574,101.526 25.200,101.303 25.200 C 101.080 25.200,100.674 25.470,100.400 25.800 M230.550 26.032 C 231.132 26.490,231.831 26.774,232.104 26.664 C 232.415 26.538,232.358 26.451,231.949 26.432 C 231.591 26.414,231.074 26.130,230.800 25.800 C 230.526 25.470,230.120 25.200,229.897 25.200 C 229.674 25.200,229.968 25.574,230.550 26.032 M94.856 29.213 C 94.336 29.646,94.101 30.000,94.332 30.000 C 94.563 30.000,94.872 29.807,95.017 29.572 C 95.163 29.337,95.668 28.988,96.141 28.797 C 96.638 28.597,96.747 28.446,96.400 28.439 C 96.070 28.432,95.375 28.781,94.856 29.213 M235.059 28.797 C 235.532 28.988,236.037 29.337,236.183 29.572 C 236.328 29.807,236.641 30.000,236.878 30.000 C 237.114 30.000,236.850 29.640,236.291 29.200 C 235.731 28.760,235.032 28.411,234.737 28.425 C 234.442 28.439,234.587 28.607,235.059 28.797 M240.000 31.884 C 240.330 32.005,240.960 32.396,241.400 32.752 C 242.193 33.394,242.194 33.392,241.438 32.500 C 241.019 32.005,240.389 31.614,240.038 31.632 C 239.496 31.658,239.491 31.697,240.000 31.884 M87.600 34.600 C 87.083 35.150,86.377 35.614,86.030 35.632 C 85.571 35.655,85.545 35.721,85.932 35.876 C 86.225 35.992,86.945 35.641,87.532 35.094 C 88.119 34.547,88.870 34.002,89.200 33.881 C 89.714 33.695,89.709 33.659,89.170 33.632 C 88.823 33.614,88.117 34.050,87.600 34.600 M244.400 34.583 C 244.400 34.763,246.802 36.000,247.150 36.000 C 247.497 36.000,245.894 34.967,245.100 34.679 C 244.715 34.539,244.400 34.496,244.400 34.583 M75.994 45.100 L 70.600 50.600 76.100 45.206 C 81.209 40.194,81.781 39.600,81.494 39.600 C 81.436 39.600,78.961 42.075,75.994 45.100 M255.211 40.533 C 256.579 41.247,258.052 41.609,257.777 41.163 C 257.654 40.963,257.214 40.800,256.800 40.800 C 256.386 40.800,255.936 40.620,255.800 40.400 C 255.664 40.180,255.248 40.001,254.876 40.002 C 254.408 40.004,254.512 40.168,255.211 40.533 M259.006 42.010 C 259.106 42.172,259.635 42.390,260.182 42.494 C 260.729 42.599,261.094 42.552,260.994 42.390 C 260.894 42.228,260.365 42.010,259.818 41.906 C 259.271 41.801,258.906 41.848,259.006 42.010 M267.403 45.205 C 267.537 45.422,267.986 45.600,268.400 45.600 C 268.814 45.600,269.264 45.780,269.400 46.000 C 269.536 46.220,270.042 46.386,270.524 46.368 C 271.077 46.348,271.179 46.264,270.800 46.139 C 270.470 46.030,269.840 45.791,269.400 45.607 C 267.806 44.941,267.159 44.810,267.403 45.205 M273.406 47.210 C 273.506 47.372,274.035 47.590,274.582 47.694 C 275.129 47.799,275.494 47.752,275.394 47.590 C 275.294 47.428,274.765 47.210,274.218 47.106 C 273.671 47.001,273.306 47.048,273.406 47.210 M280.752 49.312 C 280.945 49.505,281.619 49.598,282.251 49.519 C 283.309 49.387,283.281 49.359,281.900 49.168 C 281.040 49.049,280.550 49.110,280.752 49.312 M286.800 50.676 C 287.570 50.758,288.560 50.989,289.000 51.190 C 290.025 51.657,293.193 51.913,292.943 51.507 C 292.838 51.338,291.964 51.200,291.000 51.200 C 290.036 51.200,289.136 51.020,289.000 50.800 C 288.864 50.580,287.998 50.429,287.076 50.464 C 285.487 50.525,285.473 50.536,286.800 50.676 M297.518 52.466 C 297.673 52.613,298.917 52.793,300.282 52.866 C 301.646 52.940,302.636 52.880,302.482 52.734 C 302.327 52.587,301.083 52.407,299.718 52.334 C 298.354 52.260,297.364 52.320,297.518 52.466 M337.119 54.460 C 337.273 54.604,338.247 54.786,339.281 54.863 C 340.316 54.940,341.036 54.885,340.881 54.740 C 340.727 54.596,339.753 54.414,338.719 54.337 C 337.684 54.260,336.964 54.315,337.119 54.460 M64.825 57.369 L 63.450 59.000 65.005 57.513 C 65.860 56.696,66.479 55.962,66.380 55.883 C 66.281 55.803,65.581 56.472,64.825 57.369 M354.146 59.402 C 355.605 60.163,355.975 60.168,354.976 59.413 C 354.549 59.090,353.930 58.821,353.600 58.815 C 353.270 58.810,353.516 59.074,354.146 59.402 M365.252 67.000 C 366.050 67.880,366.801 68.870,366.920 69.200 C 367.108 69.721,367.141 69.718,367.168 69.181 C 367.186 68.841,366.435 67.851,365.500 66.981 L 363.800 65.400 365.252 67.000 M57.201 66.998 C 56.686 67.548,56.339 68.064,56.432 68.146 C 56.524 68.228,57.019 67.778,57.530 67.147 C 58.676 65.735,58.474 65.644,57.201 66.998 M51.021 75.177 C 50.634 75.604,50.412 76.189,50.527 76.477 C 50.689 76.880,50.744 76.869,50.768 76.431 C 50.786 76.119,51.098 75.534,51.462 75.131 C 51.826 74.729,52.034 74.400,51.924 74.400 C 51.814 74.400,51.408 74.750,51.021 75.177 M47.821 79.577 C 47.434 80.004,47.212 80.589,47.327 80.877 C 47.489 81.280,47.544 81.269,47.568 80.831 C 47.586 80.519,47.898 79.934,48.262 79.531 C 48.626 79.129,48.834 78.800,48.724 78.800 C 48.614 78.800,48.208 79.150,47.821 79.577 M374.402 80.876 C 374.401 81.248,374.580 81.664,374.800 81.800 C 375.020 81.936,375.200 82.386,375.200 82.800 C 375.200 83.214,375.363 83.654,375.563 83.777 C 376.009 84.052,375.647 82.579,374.933 81.211 C 374.568 80.512,374.404 80.408,374.402 80.876 M44.032 84.769 C 44.014 85.081,43.692 85.711,43.315 86.169 C 42.669 86.953,42.683 86.951,43.562 86.142 C 44.075 85.670,44.397 85.040,44.279 84.742 C 44.104 84.303,44.057 84.308,44.032 84.769 M40.662 89.931 C 40.298 90.334,40.000 90.852,40.000 91.083 C 40.000 91.313,39.730 91.726,39.400 92.000 C 39.070 92.274,38.803 92.791,38.806 93.149 C 38.812 93.768,39.477 92.866,40.245 91.200 C 40.397 90.870,40.792 90.285,41.123 89.900 C 41.923 88.968,41.508 88.997,40.662 89.931 M378.400 93.976 C 378.400 94.623,378.542 95.241,378.716 95.348 C 378.890 95.456,378.961 94.927,378.873 94.172 C 378.676 92.491,378.400 92.377,378.400 93.976 M379.535 101.937 C 379.610 103.182,379.835 104.371,380.035 104.580 C 380.236 104.789,380.400 106.173,380.400 107.656 C 380.400 109.139,380.535 110.437,380.700 110.540 C 381.131 110.808,380.811 105.075,380.369 104.620 C 380.166 104.411,380.000 103.297,380.000 102.144 C 380.000 100.991,379.865 99.963,379.700 99.861 C 379.535 99.758,379.461 100.693,379.535 101.937 M381.595 117.918 L 381.790 120.600 381.917 118.242 C 381.986 116.945,381.899 115.738,381.722 115.560 C 381.545 115.382,381.488 116.443,381.595 117.918 M19.486 125.510 L 18.773 127.000 19.577 126.000 C 20.020 125.450,20.386 124.775,20.391 124.500 C 20.405 123.733,20.260 123.895,19.486 125.510 M16.500 131.493 C 15.788 133.011,15.884 133.633,16.613 132.233 C 16.948 131.591,17.172 130.922,17.111 130.746 C 17.050 130.570,16.775 130.906,16.500 131.493 M383.534 134.118 C 383.607 135.483,383.787 136.727,383.934 136.882 C 384.080 137.036,384.140 136.046,384.066 134.682 C 383.993 133.317,383.813 132.073,383.666 131.918 C 383.520 131.764,383.460 132.754,383.534 134.118 M11.421 143.024 C 11.052 143.587,10.831 144.352,10.929 144.724 C 11.088 145.327,11.112 145.323,11.154 144.686 C 11.179 144.293,11.491 143.528,11.846 142.986 C 12.201 142.444,12.402 142.000,12.292 142.000 C 12.182 142.000,11.790 142.461,11.421 143.024 M384.928 145.200 C 384.928 146.630,385.001 147.215,385.089 146.500 C 385.178 145.785,385.178 144.615,385.089 143.900 C 385.001 143.185,384.928 143.770,384.928 145.200 M9.787 147.800 C 9.684 148.130,9.512 148.679,9.405 149.021 C 9.297 149.362,9.366 149.545,9.557 149.427 C 9.748 149.309,9.991 148.759,10.097 148.206 C 10.306 147.113,10.090 146.830,9.787 147.800 M385.734 151.200 C 385.734 152.850,385.805 153.525,385.891 152.700 C 385.978 151.875,385.978 150.525,385.891 149.700 C 385.805 148.875,385.734 149.550,385.734 151.200 M7.580 156.290 C 7.471 157.219,7.533 157.827,7.720 157.640 C 7.906 157.454,7.996 156.694,7.919 155.951 C 7.783 154.633,7.775 154.642,7.580 156.290 M386.854 162.276 C 386.825 163.638,386.935 164.836,387.100 164.938 C 387.265 165.040,387.347 164.286,387.283 163.262 C 387.084 160.088,386.911 159.691,386.854 162.276 M6.542 165.000 C 6.541 166.980,6.608 167.840,6.692 166.912 C 6.776 165.984,6.777 164.364,6.695 163.312 C 6.612 162.260,6.543 163.020,6.542 165.000 M5.681 172.676 C 5.635 174.788,5.770 176.458,6.000 176.600 C 6.220 176.736,6.436 178.322,6.479 180.124 L 6.559 183.400 6.699 180.410 C 6.776 178.765,6.652 177.055,6.423 176.610 C 6.195 176.164,5.953 174.270,5.885 172.400 L 5.763 169.000 5.681 172.676 M388.731 179.318 C 388.803 180.903,388.983 182.327,389.131 182.482 C 389.279 182.637,389.341 181.467,389.269 179.882 C 389.197 178.297,389.017 176.873,388.869 176.718 C 388.721 176.563,388.659 177.733,388.731 179.318 M7.600 188.776 C 7.600 189.423,7.742 190.041,7.916 190.148 C 8.090 190.256,8.161 189.727,8.073 188.972 C 7.876 187.291,7.600 187.177,7.600 188.776 M390.144 192.400 C 390.144 194.490,390.212 195.345,390.294 194.300 C 390.376 193.255,390.376 191.545,390.294 190.500 C 390.212 189.455,390.144 190.310,390.144 192.400 M9.528 196.632 C 9.616 197.388,9.811 198.083,9.961 198.176 C 10.110 198.268,10.161 197.725,10.072 196.968 C 9.984 196.212,9.789 195.517,9.639 195.424 C 9.490 195.332,9.439 195.875,9.528 196.632 M390.864 199.676 C 390.829 201.588,390.935 203.237,391.100 203.339 C 391.265 203.442,391.350 202.418,391.289 201.063 C 391.089 196.652,390.929 196.130,390.864 199.676 M14.706 209.818 C 14.810 210.365,15.028 210.894,15.190 210.994 C 15.352 211.094,15.399 210.729,15.294 210.182 C 15.190 209.635,14.972 209.106,14.810 209.006 C 14.648 208.906,14.601 209.271,14.706 209.818 M391.923 217.919 C 391.990 220.713,392.170 223.127,392.323 223.281 C 392.475 223.436,392.545 221.276,392.477 218.481 C 392.410 215.687,392.230 213.273,392.077 213.119 C 391.925 212.964,391.855 215.124,391.923 217.919 M19.202 218.254 C 19.201 218.504,19.469 219.224,19.798 219.854 C 20.126 220.484,20.396 220.796,20.398 220.546 C 20.399 220.296,20.131 219.576,19.802 218.946 C 19.474 218.316,19.204 218.004,19.202 218.254 M23.232 225.651 C 23.214 226.009,23.470 226.526,23.800 226.800 C 24.130 227.074,24.414 227.591,24.432 227.949 C 24.453 228.398,24.528 228.438,24.673 228.077 C 24.788 227.789,24.617 227.249,24.293 226.877 C 23.969 226.505,23.605 225.930,23.484 225.600 C 23.299 225.098,23.258 225.107,23.232 225.651 M29.459 237.900 C 29.560 238.285,30.000 239.050,30.436 239.600 C 31.168 240.522,31.163 240.467,30.375 238.900 C 29.465 237.092,29.159 236.758,29.459 237.900 M39.886 262.006 C 40.002 262.450,40.255 262.910,40.448 263.030 C 40.642 263.149,40.800 263.586,40.800 264.000 C 40.800 264.414,40.978 264.863,41.195 264.997 C 41.632 265.267,41.438 264.531,40.538 262.500 C 39.890 261.036,39.568 260.793,39.886 262.006 M43.906 273.418 C 44.010 273.965,44.228 274.494,44.390 274.594 C 44.552 274.694,44.599 274.329,44.494 273.782 C 44.390 273.235,44.172 272.706,44.010 272.606 C 43.848 272.506,43.801 272.871,43.906 273.418 M392.131 276.600 C 392.133 278.140,392.205 278.721,392.292 277.891 C 392.379 277.061,392.377 275.801,392.289 275.091 C 392.200 274.381,392.129 275.060,392.131 276.600 M45.041 277.079 C 45.168 277.476,45.429 278.160,45.620 278.600 C 45.811 279.040,46.040 279.850,46.129 280.400 C 46.264 281.230,46.300 281.184,46.346 280.124 C 46.375 279.422,46.220 278.736,46.000 278.600 C 45.780 278.464,45.600 278.014,45.600 277.600 C 45.600 277.186,45.422 276.737,45.205 276.603 C 44.973 276.460,44.905 276.657,45.041 277.079 M47.168 284.300 C 47.359 285.681,47.387 285.709,47.519 284.651 C 47.598 284.019,47.505 283.345,47.312 283.152 C 47.110 282.950,47.049 283.440,47.168 284.300 M390.867 285.076 C 390.830 285.998,390.639 286.852,390.442 286.974 C 390.245 287.095,390.017 287.901,389.935 288.764 C 389.853 289.627,389.924 290.247,390.093 290.143 C 390.262 290.038,390.400 289.369,390.400 288.656 C 390.400 287.943,390.592 287.168,390.827 286.933 C 391.062 286.698,391.183 285.807,391.095 284.953 L 390.934 283.400 390.867 285.076 M49.200 292.176 C 49.200 292.713,49.347 293.244,49.528 293.355 C 49.708 293.467,49.777 293.027,49.682 292.379 C 49.472 290.949,49.200 290.835,49.200 292.176 M50.380 298.110 C 50.575 299.758,50.583 299.767,50.719 298.449 C 50.796 297.706,50.706 296.946,50.520 296.760 C 50.333 296.573,50.271 297.181,50.380 298.110 M51.200 301.376 C 51.200 301.913,51.347 302.444,51.528 302.555 C 51.708 302.667,51.777 302.227,51.682 301.579 C 51.472 300.149,51.200 300.035,51.200 301.376 M52.368 307.100 C 52.559 308.481,52.587 308.509,52.719 307.451 C 52.798 306.819,52.705 306.145,52.512 305.952 C 52.310 305.750,52.249 306.240,52.368 307.100 M57.506 322.218 C 57.610 322.765,57.828 323.294,57.990 323.394 C 58.152 323.494,58.199 323.129,58.094 322.582 C 57.990 322.035,57.772 321.506,57.610 321.406 C 57.448 321.306,57.401 321.671,57.506 322.218 M374.900 326.293 C 374.188 327.811,374.284 328.433,375.013 327.033 C 375.348 326.391,375.572 325.722,375.511 325.546 C 375.450 325.370,375.175 325.706,374.900 326.293 M60.802 328.654 C 60.801 328.904,61.069 329.624,61.398 330.254 C 61.726 330.884,61.996 331.196,61.998 330.946 C 61.999 330.696,61.731 329.976,61.402 329.346 C 61.074 328.716,60.804 328.404,60.802 328.654 M368.434 336.153 L 367.469 337.400 368.613 336.312 C 369.243 335.714,369.677 335.153,369.579 335.065 C 369.480 334.977,368.965 335.467,368.434 336.153 M361.781 344.900 L 360.200 346.600 361.900 345.019 C 363.481 343.548,363.784 343.200,363.481 343.200 C 363.416 343.200,362.651 343.965,361.781 344.900 M77.194 350.900 C 80.161 353.925,82.636 356.400,82.694 356.400 C 82.981 356.400,82.409 355.806,77.300 350.794 L 71.800 345.400 77.194 350.900 M352.181 355.639 C 351.312 356.540,350.240 357.429,349.800 357.614 C 349.247 357.846,349.190 357.957,349.615 357.975 C 349.953 357.989,351.117 357.100,352.200 356.000 C 353.283 354.900,354.078 354.000,353.966 354.000 C 353.854 354.000,353.051 354.738,352.181 355.639 M88.800 361.081 C 89.130 361.202,89.881 361.747,90.468 362.294 C 91.055 362.841,91.775 363.192,92.068 363.076 C 92.455 362.921,92.429 362.855,91.970 362.832 C 91.623 362.814,90.917 362.350,90.400 361.800 C 89.883 361.250,89.177 360.814,88.830 360.832 C 88.291 360.859,88.286 360.895,88.800 361.081 M93.200 364.284 C 93.530 364.405,94.160 364.796,94.600 365.152 C 95.393 365.794,95.394 365.792,94.638 364.900 C 94.219 364.405,93.589 364.014,93.238 364.032 C 92.696 364.058,92.691 364.097,93.200 364.284 M341.000 365.600 C 340.141 366.480,339.159 367.214,338.819 367.232 C 338.354 367.255,338.334 367.317,338.738 367.478 C 339.034 367.596,340.024 366.973,340.938 366.094 C 341.852 365.215,342.870 364.399,343.200 364.280 C 343.721 364.092,343.718 364.059,343.181 364.032 C 342.841 364.014,341.859 364.720,341.000 365.600 M332.400 372.200 C 331.883 372.750,331.177 373.214,330.830 373.232 C 330.371 373.255,330.345 373.321,330.732 373.476 C 331.025 373.592,331.745 373.241,332.332 372.694 C 332.919 372.147,333.670 371.602,334.000 371.481 C 334.514 371.295,334.509 371.259,333.970 371.232 C 333.623 371.214,332.917 371.650,332.400 372.200 M107.346 373.002 C 107.976 373.331,108.696 373.599,108.946 373.598 C 109.196 373.596,108.884 373.326,108.254 372.998 C 107.624 372.669,106.904 372.401,106.654 372.402 C 106.404 372.404,106.716 372.674,107.346 373.002 M110.800 374.684 C 111.130 374.805,111.760 375.196,112.200 375.552 C 112.993 376.194,112.994 376.192,112.238 375.300 C 111.819 374.805,111.189 374.414,110.838 374.432 C 110.296 374.458,110.291 374.497,110.800 374.684 M124.000 381.144 C 124.550 381.605,125.360 381.965,125.800 381.945 C 126.580 381.908,126.581 381.902,125.817 381.708 C 125.386 381.599,124.576 381.238,124.017 380.907 L 123.000 380.305 124.000 381.144 M317.600 381.433 C 316.248 382.184,317.211 382.155,318.654 381.402 C 319.284 381.074,319.530 380.821,319.200 380.842 C 318.870 380.862,318.150 381.128,317.600 381.433 M137.036 386.058 C 137.152 386.246,137.586 386.400,138.000 386.400 C 138.414 386.400,138.851 386.559,138.970 386.752 C 139.090 386.946,139.635 387.190,140.182 387.294 C 140.729 387.399,141.081 387.330,140.964 387.142 C 140.848 386.954,140.414 386.800,140.000 386.800 C 139.586 386.800,139.149 386.641,139.030 386.448 C 138.910 386.254,138.365 386.010,137.818 385.906 C 137.271 385.801,136.919 385.870,137.036 386.058 M150.000 390.156 C 150.000 390.242,150.617 390.385,151.372 390.473 C 152.127 390.561,152.656 390.490,152.548 390.316 C 152.355 390.003,150.000 389.855,150.000 390.156 M155.960 391.320 C 156.146 391.506,156.906 391.596,157.649 391.519 C 158.967 391.383,158.958 391.375,157.310 391.180 C 156.381 391.071,155.773 391.133,155.960 391.320 M160.305 392.283 C 160.802 392.379,161.522 392.375,161.905 392.275 C 162.287 392.175,161.880 392.096,161.000 392.101 C 160.120 392.105,159.807 392.187,160.305 392.283 M166.000 393.427 C 167.344 393.727,170.311 393.780,170.138 393.500 C 170.036 393.335,168.928 393.221,167.676 393.246 C 166.424 393.272,165.670 393.353,166.000 393.427 M178.719 395.260 C 178.873 395.404,179.847 395.586,180.881 395.663 C 181.916 395.740,182.636 395.685,182.481 395.540 C 182.327 395.396,181.353 395.214,180.319 395.137 C 179.284 395.060,178.564 395.115,178.719 395.260 M188.691 396.689 C 189.401 396.777,190.661 396.779,191.491 396.692 C 192.321 396.605,191.740 396.533,190.200 396.531 C 188.660 396.529,187.981 396.600,188.691 396.689 M280.600 396.800 C 280.464 397.020,279.834 397.200,279.200 397.200 C 278.566 397.200,277.952 397.354,277.836 397.542 C 277.590 397.940,279.430 397.703,280.600 397.187 C 281.040 396.992,281.850 396.760,282.400 396.671 C 283.230 396.536,283.184 396.500,282.124 396.454 C 281.422 396.425,280.736 396.580,280.600 396.800 M193.800 397.438 C 195.674 397.739,198.309 397.777,198.138 397.500 C 198.036 397.335,196.838 397.225,195.476 397.254 C 194.114 397.284,193.360 397.367,193.800 397.438 M203.956 398.518 C 204.132 398.693,205.699 398.781,207.438 398.715 L 210.600 398.593 207.118 398.397 C 205.203 398.288,203.780 398.343,203.956 398.518 M273.600 398.295 C 272.610 398.381,271.673 398.575,271.519 398.727 C 271.364 398.879,272.084 398.940,273.119 398.863 C 274.153 398.786,275.171 398.560,275.380 398.361 C 275.589 398.163,275.679 398.031,275.580 398.070 C 275.481 398.108,274.590 398.210,273.600 398.295 M225.552 400.513 C 225.725 400.686,228.012 400.775,230.633 400.711 L 235.400 400.596 230.319 400.398 C 227.524 400.289,225.379 400.341,225.552 400.513 M257.861 400.700 C 257.759 400.865,258.603 400.949,259.738 400.886 C 263.416 400.682,263.863 400.521,260.924 400.460 C 259.342 400.427,257.964 400.535,257.861 400.700 " stroke="none" fill="#dcf0f0" fill-rule="evenodd"></path><path id="path4" d="M153.900 8.693 C 154.835 8.777,156.365 8.777,157.300 8.693 C 158.235 8.609,157.470 8.540,155.600 8.540 C 153.730 8.540,152.965 8.609,153.900 8.693 M177.700 8.691 C 178.525 8.778,179.875 8.778,180.700 8.691 C 181.525 8.605,180.850 8.534,179.200 8.534 C 177.550 8.534,176.875 8.605,177.700 8.691 M382.931 129.000 C 382.933 130.540,383.005 131.121,383.092 130.291 C 383.179 129.461,383.177 128.201,383.089 127.491 C 383.000 126.781,382.929 127.460,382.931 129.000 M8.352 153.513 C 8.221 154.307,8.279 154.681,8.501 154.459 C 8.703 154.257,8.801 153.667,8.719 153.146 C 8.593 152.345,8.537 152.402,8.352 153.513 M388.131 173.800 C 388.133 175.340,388.205 175.921,388.292 175.091 C 388.379 174.261,388.377 173.001,388.289 172.291 C 388.200 171.581,388.129 172.260,388.131 173.800 M8.501 191.800 C 8.505 192.680,8.587 192.993,8.683 192.495 C 8.779 191.998,8.775 191.278,8.675 190.895 C 8.575 190.513,8.496 190.920,8.501 191.800 M393.373 253.400 C 393.373 258.900,393.430 261.205,393.499 258.523 C 393.568 255.841,393.568 251.341,393.499 248.523 C 393.430 245.705,393.374 247.900,393.373 253.400 M175.300 394.687 C 175.905 394.778,176.895 394.778,177.500 394.687 C 178.105 394.595,177.610 394.520,176.400 394.520 C 175.190 394.520,174.695 394.595,175.300 394.687 M219.700 399.894 C 220.745 399.976,222.455 399.976,223.500 399.894 C 224.545 399.812,223.690 399.744,221.600 399.744 C 219.510 399.744,218.655 399.812,219.700 399.894 M264.900 399.887 C 265.505 399.978,266.495 399.978,267.100 399.887 C 267.705 399.795,267.210 399.720,266.000 399.720 C 264.790 399.720,264.295 399.795,264.900 399.887 " stroke="none" fill="#dcdcf4" fill-rule="evenodd"></path></g></svg>